<?xml version="1.0" encoding="UTF-8"?>
<svg fill="#0901FF" width="100pt" height="100pt" version="1.1" viewBox="0 0 100 100" xmlns="http://www.w3.org/2000/svg">
 <g>
  <path d="m14.504 47.254c-3.0781 5.7148-4.5039 12.199-4.8359 18.68-0.21875 4.7266-0.10938 9.5586 0 14.395s-0.32812 10.441 1.0977 15.055c0.66016 1.9766 3.7344 2.1992 4.1758 0 0.98828-4.2852 0.21875-9.0117 0.21875-13.297-0.10938-4.2852 0-8.4609 0.10938-12.746 0.21875-8.4609 1.5391-17.363 7.0312-24.176 2.0898-2.5273-1.4297-6.1523-3.625-3.625-0.66016 0.76953-1.3203 1.5391-1.9766 2.418-0.10938-0.10938-0.21875-0.21875-0.44141-0.32812-6.8125-4.3945-10.219-12.855-8.0234-20.77 1.4297-5.1641 4.8359-9.2305 9.0117-12.418-1.8633 6.5898-1.6406 13.734 4.1836 18.898 1.4297 1.207 3.625 2.6367 5.6055 2.5273 2.3086-0.10938 5.0547-2.3086 7.2539-3.0781 4.9453-1.8672 10.109-2.7461 15.383-2.5273s10.219 1.6484 14.727 4.3945c2.5273 1.5391 3.4062 2.5273 6.375 1.4297 2.1992-0.76953 4.1758-2.0898 5.8242-3.7344 4.8359-4.7266 5.0547-10.328 3.0781-15.605 3.8477 2.418 7.4727 5.1641 9.8906 9.0117 5.6055 9.1211-2.6367 17.582-9.4492 22.969-1.8672 1.4297-0.87891 3.7344 0.76953 4.5039-0.33594 7.1445 0.43359 14.504 0.43359 21.648 0 7.4727 0.98828 15.934-1.4297 23.078-0.98828 3.0781 4.0664 5.3828 5.3828 2.3086 1.5391-3.5156 1.5391-7.1445 1.4297-10.879-0.10938-4.3945 0-8.793-0.10938-13.188-0.10938-7.9102 0.32812-16.484-0.98828-24.395 7.4727-6.5938 14.617-15.824 10.328-26.266-3.957-9.6719-14.504-14.176-23.188-18.68-2.5273-1.3203-5.6055 2.0898-3.1875 4.0664 3.625 3.0781 7.4727 6.9219 6.7031 12.09-0.66016 4.1758-3.7344 6.9219-7.582 8.1328-12.309-8.9023-28.902-7.8008-41.977-1.0977-3.0781-1.3203-4.7266-4.9453-5.0547-8.1328-0.55078-4.7266 1.9766-9.2305 4.1758-13.188 1.6484-2.7539-1.3203-5.1719-3.8477-3.9609-9.4492 4.2852-18.133 12.09-20 22.746-1.7578 9.7812 2.8594 20.219 12.527 23.738z"/>
  <path d="m49.012 90.441c5.3828-0.21875 11.648-0.87891 16.266-3.8477 4.1758-2.7461 6.4844-6.4844 8.0234-11.207 0.21875-0.66016-0.21875-1.5391-0.98828-1.7578-2.0898-0.44141-4.2852-0.21875-6.2656 0.44141-1.3203 0.44141-2.1992 1.207-2.9688 2.1992-0.87891-1.4297-1.9766-2.7461-3.8477-2.9688-2.9688-0.32812-6.043 0.87891-8.3516 2.6367-3.625 2.6367-7.0312-2.7461-10.879-2.8555-1.3203 0-2.5273 0.44141-3.5156 1.207-0.21875 0.10938-0.76953 0.87891-1.4297 1.6484 0-0.32812-0.10938-0.66016-0.10938-0.98828-0.10937-0.76953-0.87891-1.4297-1.5391-1.5391-2.9648-0.88281-6.375-0.88281-9.4492-0.88281-2.1992 0.10938-2.7461 2.5273-1.8672 3.8477 3.1836 11.535 16.59 14.504 26.922 14.066zm-21.867-13.297c1.207 0 2.5273 0.10938 3.7344 0.32812 0.32812 2.3086 1.0977 5.1641 4.0664 4.5039 1.4297-0.32812 2.0898-1.4297 2.7461-2.5273 0.76953-1.207 1.207-2.5273 3.1875-2.3086 1.0977 0.10938 2.3086 1.3203 3.2969 1.9766 2.6367 1.7578 5.2734 2.5273 8.0234 0.66016 1.7578-1.207 3.0781-2.5273 5.2734-2.5273 2.418-0.10938 2.9688 2.0898 4.0664 3.957 0.87891 1.4297 2.8555 0.98828 3.4062-0.44141 1.0977-2.6367 2.8555-3.7344 5.2734-4.0664-1.207 3.2969-5.6055 6.2656-8.4609 7.3633-4.2852 1.6484-9.3398 1.6484-13.957 1.5391-7.6914-0.10547-16.262-1.8672-20.656-8.457z"/>
  <path d="m66.266 64.176c2.0898 0 4.0664 0.10938 5.9336-0.76953 1.8672-0.76953 1.207-3.7344-0.55078-4.1758-1.8672-0.44141-3.8477 0-5.8242 0.10938-1.7578 0.21875-3.7344 0.32812-5.2734 1.207-0.98828 0.55078-1.0977 2.1992 0 2.7461 1.7578 0.88281 3.8438 0.99219 5.7148 0.88281z"/>
  <path d="m31.867 64.395c1.8672 0 3.957 0 5.6055-0.87891 1.0977-0.55078 0.98828-2.0898 0-2.7461-1.5391-0.87891-3.5156-0.98828-5.2734-1.207-1.8672-0.21875-3.957-0.66016-5.8242-0.10938-1.7578 0.44141-2.418 3.4062-0.55078 4.1758 1.9766 0.875 3.957 0.76562 6.043 0.76562z"/>
 </g>
</svg>
