<?xml version="1.0" encoding="UTF-8"?>
<svg fill="#FF4815" width="100pt" height="100pt" version="1.1" viewBox="0 0 100 100" xmlns="http://www.w3.org/2000/svg">
 <g>
  <path d="m33.594 46.645h19.176v3h-19.176z"/>
  <path d="m33.594 41.699h19.176v3h-19.176z"/>
  <path d="m74.742 43.961c-1.7266-1.7422-4.7305-1.7422-8.5312-1.7422-0.47656 0-0.94531-0.003906-1.4023-0.007812-0.44531-0.003907-0.87891-0.007813-1.3047-0.007813-3.2656 0-8.1992 0-8.1992 5.9219v22.148l-1.6055 1.1172c0.003906-0.11719 0.019531-0.22656 0.019531-0.34766v-28.43c0.019531-1.8555-0.42969-3.2188-1.3711-4.1719-1.7266-1.7422-4.7305-1.7422-8.5312-1.7422-0.47656 0-0.94531-0.003907-1.4023-0.007813-0.44531-0.003906-0.87891-0.007812-1.3047-0.007812-3.2656 0-8.1992 0-8.1992 5.9219v22.148l-12.328 8.6016c-5.5508 3.2188-7.3477 8.7188-4.4688 13.684 2.0039 3.4531 5.1719 5.4375 8.6953 5.4375 1.7695 0 3.5195-0.49609 5.1875-1.4609l7.1914-3.9375c-0.14062 1.8086 0.27734 3.6758 1.3203 5.4766 2.0039 3.4531 5.1719 5.4375 8.6953 5.4375 1.7695 0 3.5195-0.49609 5.1875-1.4609l18.281-10.012c0.035156-0.019531 0.066406-0.039062 0.09375-0.0625 3.4492-1.5977 5.3477-5.1055 5.3477-9.8984l0.003907-28.43c0.015624-1.8555-0.43359-3.2188-1.375-4.168zm-45.73 45.309c-1.3789 0.80078-2.793 1.2031-4.2031 1.2031-2.793 0-5.332-1.6172-6.9648-4.4375-2.3125-3.9883-0.84375-8.2852 3.8125-10.992l13.254-9.2422v-23.195c0-3.3281 1.625-3.9219 6.1992-3.9219 0.41797 0 0.84766 0.003906 1.2852 0.007812 0.46484 0.003906 0.9375 0.007813 1.4219 0.007813 3.3359 0 5.9688 0 7.1094 1.1523 0.54688 0.55469 0.80859 1.4492 0.79297 2.7539v28.434c0 0.57422-0.03125 1.1875-0.10938 1.8086l-8.6328 6.0234c-2.5391 1.4727-4.2812 3.4258-5.1602 5.5781zm45.102-12.715c0 2.8242-0.73438 6.5234-4.2422 8.1094l-0.097656 0.050782c-0.042969 0.027344-0.082032 0.050781-0.089844 0.0625l-18.277 10.004c-1.3789 0.80078-2.793 1.2031-4.2031 1.2031-2.793 0-5.332-1.6172-6.9648-4.4375-1.1055-1.9023-1.3359-3.8789-0.78125-5.7148 0.375-1.2461 1.1172-2.4336 2.207-3.4883 0.66797-0.64844 1.4609-1.25 2.3867-1.7852l6.7188-4.6836 2.6602-1.8555 3.875-2.7031v-23.199c0-3.3281 1.625-3.9219 6.1992-3.9219 0.41797 0 0.84766 0.003907 1.2852 0.007813 0.46484 0.003906 0.9375 0.007813 1.4219 0.007813 3.3359 0 5.9727 0 7.1094 1.1523 0.54688 0.55469 0.80859 1.4492 0.79297 2.7539z"/>
  <path d="m55.988 52.16h19.176v3h-19.176z"/>
  <path d="m55.988 47.5h19.176v3h-19.176z"/>
  <path d="m54.926 31.5c-0.55469 0-1-0.44922-1-1 0-1.6016 0.51953-2.4688 0.9375-3.1641 0.36328-0.60938 0.65234-1.0898 0.65234-2.1367 0-1.0508-0.28906-1.5273-0.65234-2.1367-0.41797-0.69531-0.9375-1.5625-0.9375-3.1641 0-1.6016 0.51953-2.4688 0.9375-3.1641 0.36328-0.60547 0.65234-1.0859 0.65234-2.1367 0-1.0469-0.28906-1.5273-0.65234-2.1328-0.41797-0.69531-0.9375-1.5625-0.9375-3.1602 0-1.6016 0.51953-2.4688 0.9375-3.1641 0.36328-0.61328 0.65234-1.0938 0.65234-2.1406 0-0.55078 0.44531-1 1-1s1 0.44922 1 1c0 1.6016-0.51953 2.4688-0.9375 3.1641-0.36328 0.60547-0.65234 1.0859-0.65234 2.1328s0.28906 1.5273 0.65234 2.1328c0.41797 0.69531 0.9375 1.5625 0.9375 3.1641s-0.51953 2.4688-0.9375 3.1641c-0.36328 0.60547-0.65234 1.0859-0.65234 2.1367s0.28906 1.5273 0.65234 2.1367c0.41797 0.69531 0.9375 1.5625 0.9375 3.1641 0 1.6016-0.51953 2.4688-0.9375 3.1641-0.36328 0.60938-0.65234 1.0898-0.65234 2.1367 0 0.55469-0.44531 1.0039-1 1.0039z"/>
  <path d="m45.387 31.5c-0.55078 0-1-0.44922-1-1 0-1.6016 0.51953-2.4688 0.9375-3.1641 0.36328-0.60938 0.65234-1.0898 0.65234-2.1367 0-1.0508-0.28906-1.5273-0.65234-2.1367-0.41797-0.69531-0.9375-1.5625-0.9375-3.1641 0-1.6016 0.51953-2.4688 0.9375-3.1641 0.36328-0.60547 0.65234-1.0859 0.65234-2.1367 0-1.0469-0.28906-1.5273-0.65234-2.1328-0.41797-0.69531-0.9375-1.5625-0.9375-3.1602 0-1.6016 0.51953-2.4688 0.9375-3.1641 0.36328-0.61328 0.65234-1.0938 0.65234-2.1406 0-0.55078 0.44922-1 1-1 0.55078 0 1 0.44922 1 1 0 1.6016-0.51953 2.4688-0.9375 3.1641-0.36328 0.60547-0.65234 1.0859-0.65234 2.1328s0.28906 1.5273 0.65234 2.1328c0.41797 0.69531 0.9375 1.5625 0.9375 3.1641s-0.51953 2.4688-0.9375 3.1641c-0.36328 0.60547-0.65234 1.0859-0.65234 2.1367s0.28906 1.5273 0.65234 2.1367c0.41797 0.69531 0.9375 1.5625 0.9375 3.1641 0 1.6016-0.51953 2.4688-0.9375 3.1641-0.36328 0.60938-0.65234 1.0898-0.65234 2.1367 0 0.55469-0.44922 1.0039-1 1.0039z"/>
  <path d="m64.703 31.5c-0.55469 0-1-0.44922-1-1 0-1.6016 0.51953-2.4688 0.9375-3.1641 0.36328-0.60938 0.65234-1.0898 0.65234-2.1367 0-1.0508-0.28906-1.5273-0.65234-2.1367-0.41797-0.69531-0.9375-1.5625-0.9375-3.1641 0-1.6016 0.51953-2.4688 0.9375-3.1641 0.36328-0.60547 0.65234-1.0859 0.65234-2.1367 0-1.0469-0.28906-1.5273-0.65234-2.1328-0.41797-0.69531-0.9375-1.5625-0.9375-3.1602 0-1.6016 0.51953-2.4688 0.9375-3.1641 0.36719-0.61328 0.65625-1.0938 0.65625-2.1406 0-0.55078 0.44531-1 1-1s1 0.44922 1 1c0 1.6016-0.51953 2.4688-0.9375 3.1641-0.36328 0.60547-0.65234 1.0859-0.65234 2.1328s0.28906 1.5273 0.65234 2.1328c0.41797 0.69531 0.9375 1.5625 0.9375 3.1641s-0.51953 2.4688-0.9375 3.1641c-0.36328 0.60547-0.65234 1.0859-0.65234 2.1367s0.28906 1.5273 0.65234 2.1367c0.41797 0.69531 0.9375 1.5625 0.9375 3.1641 0 1.6016-0.51953 2.4688-0.9375 3.1641-0.36328 0.60938-0.65234 1.0898-0.65234 2.1367-0.003906 0.55469-0.44922 1.0039-1.0039 1.0039z"/>
 </g>
</svg>
